<svg xmlns="http://www.w3.org/2000/svg" xmlns:xlink="http://www.w3.org/1999/xlink" width="500" zoomAndPan="magnify" viewBox="0 0 375 374.999991" height="500" preserveAspectRatio="xMidYMid meet" version="1.0"><defs><g/></defs><g fill="#5271ff" fill-opacity="1"><g transform="translate(85.586689, 182.605608)"><g><path d="M 14.90625 -23.5 L 14.90625 0 L 9.25 0 L 9.25 -23.5 L 1.125 -23.5 L 1.125 -27.9375 L 23.265625 -27.9375 L 22.671875 -23.5 Z M 14.90625 -23.5 "/></g></g></g><g fill="#5271ff" fill-opacity="1"><g transform="translate(105.540787, 182.605608)"><g><path d="M 20.390625 -5.6875 C 20.390625 -4.875 20.507812 -4.28125 20.75 -3.90625 C 20.988281 -3.539062 21.367188 -3.257812 21.890625 -3.0625 L 20.734375 0.5625 C 19.578125 0.445312 18.59375 0.164062 17.78125 -0.28125 C 16.96875 -0.726562 16.34375 -1.410156 15.90625 -2.328125 C 15.101562 -1.335938 14.082031 -0.597656 12.84375 -0.109375 C 11.601562 0.378906 10.3125 0.625 8.96875 0.625 C 6.78125 0.625 5.046875 0.00390625 3.765625 -1.234375 C 2.484375 -2.484375 1.84375 -4.097656 1.84375 -6.078125 C 1.84375 -8.367188 2.734375 -10.128906 4.515625 -11.359375 C 6.304688 -12.585938 8.847656 -13.203125 12.140625 -13.203125 L 15.078125 -13.203125 L 15.078125 -14.3125 C 15.078125 -15.570312 14.691406 -16.484375 13.921875 -17.046875 C 13.148438 -17.609375 12.046875 -17.890625 10.609375 -17.890625 C 9.898438 -17.890625 9.03125 -17.796875 8 -17.609375 C 6.976562 -17.421875 5.921875 -17.144531 4.828125 -16.78125 L 3.53125 -20.5 C 4.894531 -21.007812 6.269531 -21.390625 7.65625 -21.640625 C 9.050781 -21.890625 10.316406 -22.015625 11.453125 -22.015625 C 14.484375 -22.015625 16.726562 -21.375 18.1875 -20.09375 C 19.65625 -18.8125 20.390625 -17 20.390625 -14.65625 Z M 10.75 -3.328125 C 11.550781 -3.328125 12.359375 -3.550781 13.171875 -4 C 13.992188 -4.445312 14.628906 -5.078125 15.078125 -5.890625 L 15.078125 -10 L 13.046875 -10 C 11.097656 -10 9.6875 -9.6875 8.8125 -9.0625 C 7.945312 -8.4375 7.515625 -7.539062 7.515625 -6.375 C 7.515625 -5.40625 7.789062 -4.65625 8.34375 -4.125 C 8.894531 -3.59375 9.695312 -3.328125 10.75 -3.328125 Z M 10.75 -3.328125 "/></g></g></g><g fill="#5271ff" fill-opacity="1"><g transform="translate(125.494884, 182.605608)"><g><path d="M 15.59375 -21.390625 L 15.59375 -3.84375 L 21.203125 -3.84375 L 21.203125 0 L 3.921875 0 L 3.921875 -3.84375 L 10.140625 -3.84375 L 10.140625 -17.546875 L 4.125 -17.546875 L 4.125 -21.390625 Z M 12.09375 -32.234375 C 13.09375 -32.234375 13.898438 -31.921875 14.515625 -31.296875 C 15.140625 -30.679688 15.453125 -29.921875 15.453125 -29.015625 C 15.453125 -28.085938 15.140625 -27.3125 14.515625 -26.6875 C 13.898438 -26.070312 13.09375 -25.765625 12.09375 -25.765625 C 11.101562 -25.765625 10.289062 -26.070312 9.65625 -26.6875 C 9.03125 -27.3125 8.71875 -28.085938 8.71875 -29.015625 C 8.71875 -29.921875 9.03125 -30.679688 9.65625 -31.296875 C 10.289062 -31.921875 11.101562 -32.234375 12.09375 -32.234375 Z M 12.09375 -32.234375 "/></g></g></g><g fill="#5271ff" fill-opacity="1"><g transform="translate(145.448979, 182.605608)"><g><path d="M 16.515625 -30.515625 C 17.960938 -30.515625 19.238281 -30.394531 20.34375 -30.15625 C 21.457031 -29.925781 22.472656 -29.613281 23.390625 -29.21875 L 21.828125 -25.5625 C 21.097656 -25.863281 20.347656 -26.082031 19.578125 -26.21875 C 18.804688 -26.351562 18.03125 -26.421875 17.25 -26.421875 C 15.90625 -26.421875 14.925781 -26.171875 14.3125 -25.671875 C 13.707031 -25.171875 13.40625 -24.367188 13.40625 -23.265625 L 13.40625 -19.953125 L 20.484375 -19.953125 L 19.875 -16.078125 L 13.40625 -16.078125 L 13.40625 0 L 8 0 L 8 -16.078125 L 3.3125 -16.078125 L 3.3125 -19.953125 L 8 -19.953125 L 8 -23.40625 C 8 -24.789062 8.332031 -26.015625 9 -27.078125 C 9.675781 -28.140625 10.648438 -28.976562 11.921875 -29.59375 C 13.191406 -30.207031 14.722656 -30.515625 16.515625 -30.515625 Z M 16.515625 -30.515625 "/></g></g></g><g fill="#5271ff" fill-opacity="1"><g transform="translate(165.403079, 182.605608)"><g><path d="M 8.65625 -21.390625 L 8.65625 -6.578125 C 8.65625 -5.429688 8.878906 -4.625 9.328125 -4.15625 C 9.773438 -3.695312 10.421875 -3.46875 11.265625 -3.46875 C 12.085938 -3.46875 12.890625 -3.71875 13.671875 -4.21875 C 14.453125 -4.71875 15.085938 -5.359375 15.578125 -6.140625 L 15.578125 -21.390625 L 21.015625 -21.390625 L 21.015625 0 L 16.28125 0 L 16 -2.625 C 15.238281 -1.5625 14.257812 -0.753906 13.0625 -0.203125 C 11.863281 0.347656 10.625 0.625 9.34375 0.625 C 7.269531 0.625 5.726562 0.0351562 4.71875 -1.140625 C 3.71875 -2.316406 3.21875 -3.910156 3.21875 -5.921875 L 3.21875 -21.390625 Z M 8.65625 -21.390625 "/></g></g></g><g fill="#5271ff" fill-opacity="1"><g transform="translate(185.357179, 182.605608)"><g><path d="M 3.40625 0 L 3.40625 -3.75 L 6.375 -3.75 L 6.375 -17.65625 L 3.40625 -17.65625 L 3.40625 -21.390625 L 10.546875 -21.390625 L 11.546875 -16.5 C 12.328125 -18.3125 13.3125 -19.675781 14.5 -20.59375 C 15.6875 -21.507812 17.175781 -21.96875 18.96875 -21.96875 C 19.65625 -21.96875 20.265625 -21.914062 20.796875 -21.8125 C 21.328125 -21.71875 21.84375 -21.578125 22.34375 -21.390625 L 20.6875 -16.828125 C 20.28125 -16.929688 19.882812 -17.007812 19.5 -17.0625 C 19.113281 -17.113281 18.6875 -17.140625 18.21875 -17.140625 C 16.75 -17.140625 15.46875 -16.566406 14.375 -15.421875 C 13.289062 -14.285156 12.441406 -12.738281 11.828125 -10.78125 L 11.828125 -3.75 L 16.109375 -3.75 L 16.109375 0 Z M 17.734375 -12.96875 L 17.734375 -18.71875 L 18.5 -21.390625 L 22.34375 -21.390625 L 21.359375 -12.96875 Z M 17.734375 -12.96875 "/></g></g></g><g fill="#5271ff" fill-opacity="1"><g transform="translate(205.31128, 182.605608)"><g/></g></g><g fill="#050a30" fill-opacity="1"><g transform="translate(225.262465, 182.605608)"><g><path d="M 15.578125 -30.515625 L 21.015625 -29.921875 L 21.015625 0 L 16.203125 0 L 15.875 -2.5 C 15.226562 -1.570312 14.40625 -0.816406 13.40625 -0.234375 C 12.414062 0.335938 11.253906 0.625 9.921875 0.625 C 8.109375 0.625 6.617188 0.148438 5.453125 -0.796875 C 4.285156 -1.742188 3.410156 -3.066406 2.828125 -4.765625 C 2.242188 -6.472656 1.953125 -8.457031 1.953125 -10.71875 C 1.953125 -12.90625 2.289062 -14.847656 2.96875 -16.546875 C 3.65625 -18.253906 4.632812 -19.59375 5.90625 -20.5625 C 7.175781 -21.53125 8.6875 -22.015625 10.4375 -22.015625 C 11.476562 -22.015625 12.425781 -21.832031 13.28125 -21.46875 C 14.144531 -21.101562 14.910156 -20.570312 15.578125 -19.875 Z M 11.890625 -17.953125 C 10.585938 -17.953125 9.554688 -17.375 8.796875 -16.21875 C 8.035156 -15.070312 7.65625 -13.234375 7.65625 -10.703125 C 7.65625 -8.910156 7.8125 -7.484375 8.125 -6.421875 C 8.445312 -5.367188 8.894531 -4.613281 9.46875 -4.15625 C 10.050781 -3.695312 10.738281 -3.46875 11.53125 -3.46875 C 12.394531 -3.46875 13.160156 -3.726562 13.828125 -4.25 C 14.492188 -4.769531 15.078125 -5.425781 15.578125 -6.21875 L 15.578125 -15.890625 C 15.085938 -16.535156 14.539062 -17.039062 13.9375 -17.40625 C 13.34375 -17.769531 12.660156 -17.953125 11.890625 -17.953125 Z M 11.890625 -17.953125 "/></g></g></g><g fill="#050a30" fill-opacity="1"><g transform="translate(245.216563, 182.605608)"><g><path d="M 7.859375 -9.046875 C 7.972656 -7.722656 8.28125 -6.648438 8.78125 -5.828125 C 9.28125 -5.015625 9.921875 -4.414062 10.703125 -4.03125 C 11.492188 -3.65625 12.367188 -3.46875 13.328125 -3.46875 C 14.347656 -3.46875 15.304688 -3.628906 16.203125 -3.953125 C 17.109375 -4.273438 18 -4.722656 18.875 -5.296875 L 21.140625 -2.203125 C 20.148438 -1.367188 18.957031 -0.6875 17.5625 -0.15625 C 16.175781 0.363281 14.648438 0.625 12.984375 0.625 C 10.640625 0.625 8.671875 0.144531 7.078125 -0.8125 C 5.492188 -1.78125 4.296875 -3.109375 3.484375 -4.796875 C 2.671875 -6.492188 2.265625 -8.457031 2.265625 -10.6875 C 2.265625 -12.800781 2.660156 -14.710938 3.453125 -16.421875 C 4.242188 -18.140625 5.394531 -19.5 6.90625 -20.5 C 8.414062 -21.507812 10.234375 -22.015625 12.359375 -22.015625 C 14.328125 -22.015625 16.03125 -21.582031 17.46875 -20.71875 C 18.90625 -19.851562 20.015625 -18.613281 20.796875 -17 C 21.578125 -15.382812 21.96875 -13.445312 21.96875 -11.1875 C 21.96875 -10.820312 21.960938 -10.445312 21.953125 -10.0625 C 21.941406 -9.675781 21.914062 -9.335938 21.875 -9.046875 Z M 12.375 -18.203125 C 11.101562 -18.203125 10.054688 -17.742188 9.234375 -16.828125 C 8.421875 -15.910156 7.941406 -14.46875 7.796875 -12.5 L 16.6875 -12.5 C 16.65625 -14.28125 16.285156 -15.675781 15.578125 -16.6875 C 14.867188 -17.695312 13.800781 -18.203125 12.375 -18.203125 Z M 12.375 -18.203125 "/></g></g></g><g fill="#050a30" fill-opacity="1"><g transform="translate(265.17066, 182.605608)"><g><path d="M 22.65625 -21.390625 L 15.328125 0 L 8.921875 0 L 1.578125 -21.390625 L 7.4375 -21.390625 L 12.21875 -4.328125 L 17.125 -21.390625 Z M 22.65625 -21.390625 "/></g></g></g><path fill="#5271ff" d="M 84.148438 221.421875 C 79.574219 220.878906 74.289062 222.671875 70.089844 220.148438 C 66.007812 217.699219 66.421875 211.902344 66.613281 207.816406 C 67.035156 198.585938 69.261719 187.527344 62.878906 179.667969 C 61.363281 177.804688 59.445312 176.289062 57.296875 175.34375 C 58.679688 174.613281 59.957031 173.65625 61.066406 172.558594 C 64.328125 169.332031 66.113281 164.980469 66.816406 160.503906 C 67.609375 155.453125 67.105469 150.367188 66.730469 145.304688 C 66.539062 142.699219 66.382812 140.078125 66.496094 137.46875 C 66.582031 135.578125 66.804688 133.316406 68.128906 131.84375 C 69.664062 130.128906 72.28125 129.695312 74.472656 129.644531 C 77.414062 129.578125 80.320312 130.039062 83.261719 129.6875 C 84.417969 129.550781 85.402344 126.695312 83.789062 126.886719 C 79.179688 127.4375 74.4375 125.910156 70.027344 127.925781 C 65.789062 129.863281 64.433594 134.417969 64.242188 138.714844 C 64.007812 143.960938 64.84375 149.175781 64.976562 154.410156 C 65.097656 159.03125 64.6875 163.957031 62.273438 168.015625 C 59.949219 171.929688 55.457031 174.582031 50.84375 173.941406 C 49.847656 173.800781 48.796875 175.746094 49.285156 176.503906 C 49.3125 176.941406 49.554688 177.25 50.125 177.171875 C 54.289062 176.59375 58.367188 178.859375 60.9375 182.019531 C 63.90625 185.675781 64.894531 190.496094 65.054688 195.097656 C 65.234375 200.238281 64.433594 205.34375 64.304688 210.472656 C 64.203125 214.628906 64.269531 219.808594 68.007812 222.503906 C 72.375 225.65625 78.152344 223.6875 83.070312 224.269531 C 84.273438 224.417969 85.535156 221.589844 84.148438 221.421875 Z M 84.148438 221.421875 " fill-opacity="1" fill-rule="nonzero"/><path fill="#5271ff" d="M 290.847656 221.421875 C 295.425781 220.878906 300.707031 222.671875 304.90625 220.148438 C 308.988281 217.699219 308.574219 211.902344 308.386719 207.816406 C 307.960938 198.585938 305.734375 187.527344 312.121094 179.667969 C 313.632812 177.804688 315.554688 176.289062 317.703125 175.34375 C 316.316406 174.613281 315.039062 173.65625 313.929688 172.558594 C 310.667969 169.332031 308.886719 164.980469 308.179688 160.503906 C 307.390625 155.453125 307.890625 150.367188 308.265625 145.304688 C 308.460938 142.699219 308.617188 140.078125 308.5 137.46875 C 308.414062 135.578125 308.191406 133.316406 306.867188 131.84375 C 305.332031 130.128906 302.714844 129.695312 300.527344 129.644531 C 297.582031 129.578125 294.675781 130.039062 291.738281 129.6875 C 290.578125 129.550781 289.59375 126.695312 291.207031 126.886719 C 295.820312 127.4375 300.5625 125.910156 304.96875 127.925781 C 309.207031 129.863281 310.5625 134.417969 310.753906 138.714844 C 310.988281 143.960938 310.152344 149.175781 310.019531 154.410156 C 309.898438 159.03125 310.308594 163.957031 312.722656 168.015625 C 315.050781 171.929688 319.539062 174.582031 324.15625 173.941406 C 325.152344 173.800781 326.199219 175.746094 325.714844 176.503906 C 325.6875 176.941406 325.445312 177.25 324.875 177.171875 C 320.707031 176.59375 316.628906 178.859375 314.0625 182.019531 C 311.089844 185.675781 310.105469 190.496094 309.945312 195.097656 C 309.765625 200.238281 310.566406 205.34375 310.691406 210.472656 C 310.796875 214.628906 310.726562 219.808594 306.988281 222.503906 C 302.625 225.65625 296.847656 223.6875 291.929688 224.269531 C 290.722656 224.417969 289.460938 221.589844 290.847656 221.421875 Z M 290.847656 221.421875 " fill-opacity="1" fill-rule="nonzero"/><g fill="#050a30" fill-opacity="1"><g transform="translate(134.212131, 205.61795)"><g><path d="M 7.859375 0 L 6.1875 0 L 4.96875 -6.453125 L 3.640625 0 L 2.015625 0 L 0.34375 -8.578125 L 1.46875 -8.578125 L 2.734375 -0.625 L 4.234375 -7.484375 L 5.703125 -7.484375 L 7.140625 -0.625 L 8.390625 -8.578125 L 9.453125 -8.578125 Z M 7.859375 0 "/></g></g></g><g fill="#050a30" fill-opacity="1"><g transform="translate(142.276634, 205.61795)"><g><path d="M 2.515625 -3.875 C 2.535156 -3.15625 2.664062 -2.566406 2.90625 -2.109375 C 3.15625 -1.648438 3.476562 -1.3125 3.875 -1.09375 C 4.269531 -0.875 4.703125 -0.765625 5.171875 -0.765625 C 5.617188 -0.765625 6.019531 -0.828125 6.375 -0.953125 C 6.726562 -1.085938 7.097656 -1.289062 7.484375 -1.5625 L 8.015625 -0.796875 C 7.609375 -0.492188 7.15625 -0.257812 6.65625 -0.09375 C 6.164062 0.0703125 5.679688 0.15625 5.203125 0.15625 C 4.421875 0.15625 3.742188 -0.0234375 3.171875 -0.390625 C 2.609375 -0.765625 2.175781 -1.285156 1.875 -1.953125 C 1.582031 -2.617188 1.4375 -3.394531 1.4375 -4.28125 C 1.4375 -5.144531 1.585938 -5.910156 1.890625 -6.578125 C 2.191406 -7.253906 2.613281 -7.78125 3.15625 -8.15625 C 3.695312 -8.539062 4.328125 -8.734375 5.046875 -8.734375 C 5.742188 -8.734375 6.335938 -8.5625 6.828125 -8.21875 C 7.328125 -7.882812 7.707031 -7.40625 7.96875 -6.78125 C 8.238281 -6.164062 8.375 -5.429688 8.375 -4.578125 C 8.375 -4.429688 8.367188 -4.300781 8.359375 -4.1875 C 8.359375 -4.070312 8.359375 -3.96875 8.359375 -3.875 Z M 5.078125 -7.78125 C 4.390625 -7.78125 3.804688 -7.535156 3.328125 -7.046875 C 2.859375 -6.554688 2.59375 -5.804688 2.53125 -4.796875 L 7.40625 -4.796875 C 7.382812 -5.796875 7.160156 -6.539062 6.734375 -7.03125 C 6.304688 -7.53125 5.753906 -7.78125 5.078125 -7.78125 Z M 5.078125 -7.78125 "/></g></g></g><g fill="#050a30" fill-opacity="1"><g transform="translate(150.341138, 205.61795)"><g><path d="M 2.796875 -7.390625 C 3.128906 -7.816406 3.503906 -8.144531 3.921875 -8.375 C 4.347656 -8.613281 4.816406 -8.734375 5.328125 -8.734375 C 6.097656 -8.734375 6.71875 -8.546875 7.1875 -8.171875 C 7.664062 -7.796875 8.007812 -7.273438 8.21875 -6.609375 C 8.4375 -5.941406 8.546875 -5.164062 8.546875 -4.28125 C 8.546875 -3.425781 8.414062 -2.660156 8.15625 -1.984375 C 7.894531 -1.316406 7.515625 -0.789062 7.015625 -0.40625 C 6.515625 -0.03125 5.898438 0.15625 5.171875 0.15625 C 4.148438 0.15625 3.347656 -0.203125 2.765625 -0.921875 L 2.671875 0 L 1.78125 0 L 1.78125 -12.046875 L 2.796875 -12.1875 Z M 4.953125 -0.71875 C 5.742188 -0.71875 6.347656 -1.015625 6.765625 -1.609375 C 7.191406 -2.203125 7.40625 -3.097656 7.40625 -4.296875 C 7.40625 -5.066406 7.320312 -5.710938 7.15625 -6.234375 C 6.988281 -6.765625 6.738281 -7.164062 6.40625 -7.4375 C 6.082031 -7.71875 5.671875 -7.859375 5.171875 -7.859375 C 4.640625 -7.859375 4.171875 -7.695312 3.765625 -7.375 C 3.367188 -7.0625 3.046875 -6.726562 2.796875 -6.375 L 2.796875 -1.921875 C 3.046875 -1.554688 3.359375 -1.265625 3.734375 -1.046875 C 4.109375 -0.828125 4.515625 -0.71875 4.953125 -0.71875 Z M 4.953125 -0.71875 "/></g></g></g><g fill="#050a30" fill-opacity="1"><g transform="translate(158.40564, 205.61795)"><g/></g></g><g fill="#050a30" fill-opacity="1"><g transform="translate(166.470144, 205.61795)"><g><path d="M 7 -12.1875 L 8.015625 -12.046875 L 8.015625 0 L 7.125 0 L 7 -1.1875 C 6.65625 -0.695312 6.269531 -0.347656 5.84375 -0.140625 C 5.425781 0.0546875 4.992188 0.15625 4.546875 0.15625 C 3.785156 0.15625 3.160156 -0.0234375 2.671875 -0.390625 C 2.191406 -0.765625 1.832031 -1.285156 1.59375 -1.953125 C 1.363281 -2.617188 1.25 -3.390625 1.25 -4.265625 C 1.25 -5.117188 1.378906 -5.878906 1.640625 -6.546875 C 1.910156 -7.222656 2.289062 -7.753906 2.78125 -8.140625 C 3.28125 -8.535156 3.882812 -8.734375 4.59375 -8.734375 C 5.113281 -8.734375 5.570312 -8.640625 5.96875 -8.453125 C 6.363281 -8.273438 6.707031 -8.007812 7 -7.65625 Z M 4.84375 -7.859375 C 4.050781 -7.859375 3.441406 -7.554688 3.015625 -6.953125 C 2.597656 -6.347656 2.390625 -5.453125 2.390625 -4.265625 C 2.390625 -3.515625 2.472656 -2.875 2.640625 -2.34375 C 2.816406 -1.8125 3.070312 -1.40625 3.40625 -1.125 C 3.75 -0.851562 4.171875 -0.71875 4.671875 -0.71875 C 5.222656 -0.71875 5.6875 -0.867188 6.0625 -1.171875 C 6.4375 -1.484375 6.75 -1.820312 7 -2.1875 L 7 -6.640625 C 6.75 -7.023438 6.4375 -7.320312 6.0625 -7.53125 C 5.6875 -7.75 5.28125 -7.859375 4.84375 -7.859375 Z M 4.84375 -7.859375 "/></g></g></g><g fill="#050a30" fill-opacity="1"><g transform="translate(174.534648, 205.61795)"><g><path d="M 2.515625 -3.875 C 2.535156 -3.15625 2.664062 -2.566406 2.90625 -2.109375 C 3.15625 -1.648438 3.476562 -1.3125 3.875 -1.09375 C 4.269531 -0.875 4.703125 -0.765625 5.171875 -0.765625 C 5.617188 -0.765625 6.019531 -0.828125 6.375 -0.953125 C 6.726562 -1.085938 7.097656 -1.289062 7.484375 -1.5625 L 8.015625 -0.796875 C 7.609375 -0.492188 7.15625 -0.257812 6.65625 -0.09375 C 6.164062 0.0703125 5.679688 0.15625 5.203125 0.15625 C 4.421875 0.15625 3.742188 -0.0234375 3.171875 -0.390625 C 2.609375 -0.765625 2.175781 -1.285156 1.875 -1.953125 C 1.582031 -2.617188 1.4375 -3.394531 1.4375 -4.28125 C 1.4375 -5.144531 1.585938 -5.910156 1.890625 -6.578125 C 2.191406 -7.253906 2.613281 -7.78125 3.15625 -8.15625 C 3.695312 -8.539062 4.328125 -8.734375 5.046875 -8.734375 C 5.742188 -8.734375 6.335938 -8.5625 6.828125 -8.21875 C 7.328125 -7.882812 7.707031 -7.40625 7.96875 -6.78125 C 8.238281 -6.164062 8.375 -5.429688 8.375 -4.578125 C 8.375 -4.429688 8.367188 -4.300781 8.359375 -4.1875 C 8.359375 -4.070312 8.359375 -3.96875 8.359375 -3.875 Z M 5.078125 -7.78125 C 4.390625 -7.78125 3.804688 -7.535156 3.328125 -7.046875 C 2.859375 -6.554688 2.59375 -5.804688 2.53125 -4.796875 L 7.40625 -4.796875 C 7.382812 -5.796875 7.160156 -6.539062 6.734375 -7.03125 C 6.304688 -7.53125 5.753906 -7.78125 5.078125 -7.78125 Z M 5.078125 -7.78125 "/></g></g></g><g fill="#050a30" fill-opacity="1"><g transform="translate(182.599153, 205.61795)"><g><path d="M 8.65625 -8.578125 L 5.46875 0 L 4.296875 0 L 1.140625 -8.578125 L 2.203125 -8.578125 L 4.921875 -1.03125 L 7.59375 -8.578125 Z M 8.65625 -8.578125 "/></g></g></g><g fill="#050a30" fill-opacity="1"><g transform="translate(190.663657, 205.61795)"><g><path d="M 2.515625 -3.875 C 2.535156 -3.15625 2.664062 -2.566406 2.90625 -2.109375 C 3.15625 -1.648438 3.476562 -1.3125 3.875 -1.09375 C 4.269531 -0.875 4.703125 -0.765625 5.171875 -0.765625 C 5.617188 -0.765625 6.019531 -0.828125 6.375 -0.953125 C 6.726562 -1.085938 7.097656 -1.289062 7.484375 -1.5625 L 8.015625 -0.796875 C 7.609375 -0.492188 7.15625 -0.257812 6.65625 -0.09375 C 6.164062 0.0703125 5.679688 0.15625 5.203125 0.15625 C 4.421875 0.15625 3.742188 -0.0234375 3.171875 -0.390625 C 2.609375 -0.765625 2.175781 -1.285156 1.875 -1.953125 C 1.582031 -2.617188 1.4375 -3.394531 1.4375 -4.28125 C 1.4375 -5.144531 1.585938 -5.910156 1.890625 -6.578125 C 2.191406 -7.253906 2.613281 -7.78125 3.15625 -8.15625 C 3.695312 -8.539062 4.328125 -8.734375 5.046875 -8.734375 C 5.742188 -8.734375 6.335938 -8.5625 6.828125 -8.21875 C 7.328125 -7.882812 7.707031 -7.40625 7.96875 -6.78125 C 8.238281 -6.164062 8.375 -5.429688 8.375 -4.578125 C 8.375 -4.429688 8.367188 -4.300781 8.359375 -4.1875 C 8.359375 -4.070312 8.359375 -3.96875 8.359375 -3.875 Z M 5.078125 -7.78125 C 4.390625 -7.78125 3.804688 -7.535156 3.328125 -7.046875 C 2.859375 -6.554688 2.59375 -5.804688 2.53125 -4.796875 L 7.40625 -4.796875 C 7.382812 -5.796875 7.160156 -6.539062 6.734375 -7.03125 C 6.304688 -7.53125 5.753906 -7.78125 5.078125 -7.78125 Z M 5.078125 -7.78125 "/></g></g></g><g fill="#050a30" fill-opacity="1"><g transform="translate(198.728158, 205.61795)"><g><path d="M 4.78125 -12.046875 L 4.78125 -1.9375 C 4.78125 -1.5 4.921875 -1.1875 5.203125 -1 C 5.492188 -0.8125 5.859375 -0.71875 6.296875 -0.71875 C 6.566406 -0.71875 6.820312 -0.742188 7.0625 -0.796875 C 7.300781 -0.847656 7.550781 -0.925781 7.8125 -1.03125 L 8.09375 -0.25 C 7.882812 -0.144531 7.613281 -0.0507812 7.28125 0.03125 C 6.957031 0.113281 6.597656 0.15625 6.203125 0.15625 C 5.523438 0.15625 4.945312 -0.0234375 4.46875 -0.390625 C 4 -0.753906 3.765625 -1.269531 3.765625 -1.9375 L 3.765625 -11.15625 L 1.109375 -11.15625 L 1.109375 -12.046875 Z M 4.78125 -12.046875 "/></g></g></g><g fill="#050a30" fill-opacity="1"><g transform="translate(206.792658, 205.61795)"><g><path d="M 4.921875 -8.734375 C 5.703125 -8.734375 6.351562 -8.550781 6.875 -8.1875 C 7.40625 -7.820312 7.796875 -7.304688 8.046875 -6.640625 C 8.304688 -5.972656 8.4375 -5.1875 8.4375 -4.28125 C 8.4375 -3.4375 8.300781 -2.675781 8.03125 -2 C 7.769531 -1.332031 7.375 -0.804688 6.84375 -0.421875 C 6.320312 -0.0351562 5.675781 0.15625 4.90625 0.15625 C 4.113281 0.15625 3.453125 -0.0234375 2.921875 -0.390625 C 2.398438 -0.765625 2.007812 -1.285156 1.75 -1.953125 C 1.488281 -2.617188 1.359375 -3.390625 1.359375 -4.265625 C 1.359375 -5.140625 1.488281 -5.910156 1.75 -6.578125 C 2.019531 -7.253906 2.421875 -7.78125 2.953125 -8.15625 C 3.484375 -8.539062 4.140625 -8.734375 4.921875 -8.734375 Z M 4.921875 -7.84375 C 4.117188 -7.84375 3.507812 -7.550781 3.09375 -6.96875 C 2.675781 -6.382812 2.46875 -5.484375 2.46875 -4.265625 C 2.46875 -3.078125 2.671875 -2.191406 3.078125 -1.609375 C 3.484375 -1.023438 4.09375 -0.734375 4.90625 -0.734375 C 5.707031 -0.734375 6.3125 -1.023438 6.71875 -1.609375 C 7.125 -2.191406 7.328125 -3.082031 7.328125 -4.28125 C 7.328125 -5.488281 7.125 -6.382812 6.71875 -6.96875 C 6.3125 -7.550781 5.710938 -7.84375 4.921875 -7.84375 Z M 4.921875 -7.84375 "/></g></g></g><g fill="#050a30" fill-opacity="1"><g transform="translate(214.857159, 205.61795)"><g><path d="M 5.34375 -8.734375 C 6.113281 -8.734375 6.722656 -8.546875 7.171875 -8.171875 C 7.628906 -7.796875 7.953125 -7.273438 8.140625 -6.609375 C 8.335938 -5.941406 8.4375 -5.164062 8.4375 -4.28125 C 8.4375 -3.425781 8.316406 -2.660156 8.078125 -1.984375 C 7.847656 -1.316406 7.488281 -0.789062 7 -0.40625 C 6.507812 -0.03125 5.890625 0.15625 5.140625 0.15625 C 4.160156 0.15625 3.378906 -0.179688 2.796875 -0.859375 L 2.796875 3.28125 L 1.78125 3.40625 L 1.78125 -8.578125 L 2.625 -8.578125 L 2.734375 -7.3125 C 3.035156 -7.738281 3.40625 -8.082031 3.84375 -8.34375 C 4.289062 -8.601562 4.789062 -8.734375 5.34375 -8.734375 Z M 5.171875 -7.859375 C 4.640625 -7.859375 4.171875 -7.695312 3.765625 -7.375 C 3.367188 -7.0625 3.046875 -6.726562 2.796875 -6.375 L 2.796875 -1.921875 C 3.035156 -1.566406 3.34375 -1.285156 3.71875 -1.078125 C 4.101562 -0.867188 4.519531 -0.765625 4.96875 -0.765625 C 5.757812 -0.765625 6.347656 -1.050781 6.734375 -1.625 C 7.128906 -2.207031 7.328125 -3.097656 7.328125 -4.296875 C 7.328125 -5.066406 7.25 -5.710938 7.09375 -6.234375 C 6.945312 -6.765625 6.710938 -7.164062 6.390625 -7.4375 C 6.078125 -7.71875 5.671875 -7.859375 5.171875 -7.859375 Z M 5.171875 -7.859375 "/></g></g></g><g fill="#050a30" fill-opacity="1"><g transform="translate(222.92166, 205.61795)"><g><path d="M 2.515625 -3.875 C 2.535156 -3.15625 2.664062 -2.566406 2.90625 -2.109375 C 3.15625 -1.648438 3.476562 -1.3125 3.875 -1.09375 C 4.269531 -0.875 4.703125 -0.765625 5.171875 -0.765625 C 5.617188 -0.765625 6.019531 -0.828125 6.375 -0.953125 C 6.726562 -1.085938 7.097656 -1.289062 7.484375 -1.5625 L 8.015625 -0.796875 C 7.609375 -0.492188 7.15625 -0.257812 6.65625 -0.09375 C 6.164062 0.0703125 5.679688 0.15625 5.203125 0.15625 C 4.421875 0.15625 3.742188 -0.0234375 3.171875 -0.390625 C 2.609375 -0.765625 2.175781 -1.285156 1.875 -1.953125 C 1.582031 -2.617188 1.4375 -3.394531 1.4375 -4.28125 C 1.4375 -5.144531 1.585938 -5.910156 1.890625 -6.578125 C 2.191406 -7.253906 2.613281 -7.78125 3.15625 -8.15625 C 3.695312 -8.539062 4.328125 -8.734375 5.046875 -8.734375 C 5.742188 -8.734375 6.335938 -8.5625 6.828125 -8.21875 C 7.328125 -7.882812 7.707031 -7.40625 7.96875 -6.78125 C 8.238281 -6.164062 8.375 -5.429688 8.375 -4.578125 C 8.375 -4.429688 8.367188 -4.300781 8.359375 -4.1875 C 8.359375 -4.070312 8.359375 -3.96875 8.359375 -3.875 Z M 5.078125 -7.78125 C 4.390625 -7.78125 3.804688 -7.535156 3.328125 -7.046875 C 2.859375 -6.554688 2.59375 -5.804688 2.53125 -4.796875 L 7.40625 -4.796875 C 7.382812 -5.796875 7.160156 -6.539062 6.734375 -7.03125 C 6.304688 -7.53125 5.753906 -7.78125 5.078125 -7.78125 Z M 5.078125 -7.78125 "/></g></g></g><g fill="#050a30" fill-opacity="1"><g transform="translate(230.986161, 205.61795)"><g><path d="M 1.875 0 L 1.875 -0.84375 L 3.265625 -0.84375 L 3.265625 -7.71875 L 1.875 -7.71875 L 1.875 -8.578125 L 4.046875 -8.578125 L 4.234375 -6.515625 C 4.566406 -7.210938 4.96875 -7.757812 5.4375 -8.15625 C 5.90625 -8.550781 6.539062 -8.75 7.34375 -8.75 C 7.570312 -8.75 7.773438 -8.726562 7.953125 -8.6875 C 8.128906 -8.65625 8.3125 -8.617188 8.5 -8.578125 L 8.21875 -7.609375 C 8.03125 -7.671875 7.863281 -7.710938 7.71875 -7.734375 C 7.570312 -7.753906 7.40625 -7.765625 7.21875 -7.765625 C 6.53125 -7.765625 5.941406 -7.53125 5.453125 -7.0625 C 4.972656 -6.59375 4.582031 -5.847656 4.28125 -4.828125 L 4.28125 -0.84375 L 6.046875 -0.84375 L 6.046875 0 Z M 7.40625 -5.875 L 7.40625 -7.546875 L 7.484375 -8.578125 L 8.5 -8.578125 L 8.390625 -5.875 Z M 7.40625 -5.875 "/></g></g></g></svg>